<?xml version="1.0" encoding="utf-8"?>
<svg version="1.1" id="brillenlinie1" xmlns="http://www.w3.org/2000/svg" xmlns:xlink="http://www.w3.org/1999/xlink" x="0px" y="0px"
	 viewBox="0 0 87.4 66.6" style="enable-background:new 0 0 87.4 66.6;" xml:space="preserve">
<g>
	<path d="M84.9,6.5C79.5,0.8,60.1,0.2,52,0.2c-3.9,0-6.5,0.1-7.8,0.2C42.8,0.5,9.6,2.6,2.2,11.5c-3.6,4.3-1.5,13.4,0,20.1
		c0.4,2,4.5,19.6,11.3,26.9c4.8,5.1,14.5,8,26.9,8c2.3,0,4.7-0.1,7.1-0.3c14.8-1.3,28.6-6.2,32.4-9c3.4-2.5,4.6-10.1,5.5-15.7
		c0.1-0.9,0.3-1.8,0.4-2.5C86.3,35.7,89.4,11.2,84.9,6.5z M84.7,38.9c-0.1,0.7-0.3,1.5-0.4,2.5c-0.9,5.4-2,12.9-5.4,15.3
		c-3.8,2.8-17.2,7.5-31.7,8.8c-2.3,0.2-4.7,0.3-6.9,0.3c-12,0-21.6-2.9-26.2-7.8c-6.7-7.2-10.6-24.3-11-26.3
		c-1.5-6.5-3.5-15.5,0-19.7C10.4,3.4,42.8,1.3,44.2,1.2C45.4,1.1,48,1,51.8,1c7.9,0,26.8,0.6,32.1,6.2
		C88.3,11.8,85.3,35.7,84.7,38.9z"/>
</g>
</svg>
