<?xml version="1.0" encoding="utf-8"?>
<!-- Generator: Adobe Illustrator 24.1.3, SVG Export Plug-In . SVG Version: 6.00 Build 0)  -->
<svg version="1.1" id="Ebene_1" xmlns="http://www.w3.org/2000/svg" xmlns:xlink="http://www.w3.org/1999/xlink" x="0px" y="0px"
	 viewBox="0 0 87.4 66.6" style="enable-background:new 0 0 87.4 66.6;" xml:space="preserve">
<style type="text/css">
	.st0{fill:none;stroke:#000000;stroke-width:0.3;stroke-miterlimit:10;}
</style>
<g>
	<path class="st0" d="M84.9,6.5C79.5,0.8,60.1,0.2,52,0.2c-3.9,0-6.5,0.1-7.8,0.2C42.8,0.5,9.6,2.6,2.2,11.5
		c-3.6,4.3-1.5,13.4,0,20.1c0.4,2,4.5,19.6,11.3,26.9c4.8,5.1,14.5,8,26.9,8c2.3,0,4.7-0.1,7.1-0.3c14.8-1.3,28.6-6.2,32.4-9
		c3.4-2.5,4.6-10.1,5.5-15.7c0.1-0.9,0.3-1.8,0.4-2.5C86.3,35.7,89.4,11.2,84.9,6.5z"/>
</g>
</svg>
