<?xml version="1.0" encoding="utf-8"?>
<!-- Generator: Adobe Illustrator 24.1.3, SVG Export Plug-In . SVG Version: 6.00 Build 0)  -->
<svg version="1.1" id="Ebene_1" xmlns="http://www.w3.org/2000/svg" xmlns:xlink="http://www.w3.org/1999/xlink" x="0px" y="0px"
	 viewBox="0 0 87.4 66.6" style="enable-background:new 0 0 87.4 66.6;" xml:space="preserve">
<g>
	<path d="M84.9,6.5C79.5,0.8,60.1,0.2,52,0.2c-3.9,0-6.5,0.1-7.7,0.2C42.9,0.5,9.6,2.6,2.2,11.5c-3.6,4.3-1.5,13.4,0,20.1
		c0.4,2,4.5,19.6,11.3,26.9c4.8,5.1,14.5,8,26.9,8c2.3,0,4.7-0.1,7.1-0.3c14.8-1.3,28.6-6.2,32.4-9c3.4-2.5,4.6-10.1,5.5-15.7
		c0.1-0.9,0.3-1.8,0.4-2.5C86.3,35.7,89.4,11.2,84.9,6.5 M84.9,38.8c-0.1,0.7-0.3,1.6-0.4,2.5c-0.8,5-2,11.9-4.9,14.1
		c-3.7,2.8-17.7,7.5-32.2,8.7c-2.4,0.2-4.7,0.3-7,0.3c-11.8,0-19.2-2.8-23.7-7.6c-5.3-5.7-9.4-18.5-11-25.5
		c-1.4-6.4-3.4-15.2-0.3-18.9C12.5,4,44,1.8,44.4,1.8c2.1-0.1,4.9-0.2,7.7-0.2c6.2,0,27.2,0.4,32.4,5.9C87.9,11.2,86,32.7,84.9,38.8
		"/>
</g>
<g>
	<path d="M34.3,12.7c2.5,0,4.2,0.4,4.9,1.3c0.7,0.8,1.1,2.7,1.1,5.6c0,3.2-0.4,5.2-1.1,6c-0.7,0.8-2.5,1.2-5.3,1.2
		c-2.5,0-4.2-0.4-4.9-1.2c-0.7-0.8-1.1-2.6-1.1-5.4c0-3.3,0.4-5.4,1.1-6.2C29.6,13.1,31.4,12.7,34.3,12.7 M34.1,15
		c-1.8,0-2.8,0.2-3.1,0.7c-0.3,0.5-0.4,2-0.4,4.7c0,2,0.2,3.2,0.5,3.6c0.4,0.4,1.4,0.6,3.1,0.6c1.6,0,2.6-0.2,2.9-0.7
		c0.3-0.5,0.5-1.9,0.5-4.2c0-2.3-0.2-3.7-0.5-4.1C36.8,15.2,35.8,15,34.1,15"/>
	<path d="M42.3,17h2.4l-0.1,1.4l0.1,0c0.6-1.1,1.6-1.6,3.2-1.6c1.4,0,2.4,0.4,2.9,1.1c0.5,0.7,0.8,2,0.8,3.8c0,1.9-0.3,3.3-0.8,4
		c-0.5,0.7-1.5,1.1-2.9,1.1c-1.5,0-2.5-0.5-3-1.5h0v5.6h-2.4V17z M46.9,18.7c-0.9,0-1.5,0.2-1.7,0.6c-0.3,0.4-0.4,1.3-0.4,2.5
		c0,1.3,0.1,2.1,0.4,2.5c0.3,0.4,0.9,0.6,1.8,0.6c0.9,0,1.5-0.2,1.8-0.6c0.3-0.4,0.4-1.2,0.4-2.5c0-1.3-0.1-2.2-0.4-2.6
		C48.5,18.9,47.9,18.7,46.9,18.7"/>
	<path d="M60.4,17v1.8h-3.8v4.9c0,0.9,0.3,1.4,1,1.4c0.8,0,1.1-0.5,1.1-1.6V23h2v0.5c0,0.4,0,0.8,0,1.2c-0.1,1.5-1.2,2.2-3.3,2.2
		c-2.1,0-3.1-1-3.1-2.9v-5.2H53V17h1.3v-2.2h2.3V17H60.4z"/>
	<path d="M64.9,14.8h-2.3v-1.9h2.3V14.8z M64.9,26.8h-2.3V17h2.3V26.8z"/>
	<polygon points="69.8,12.8 69.8,20.8 70.4,20.8 73,17 75.7,17 72.3,21.6 76.4,26.7 73.5,26.7 70.4,22.4 69.8,22.4 69.8,26.7 
		67.4,26.7 67.4,12.8 	"/>
	<polygon points="32.2,37.6 32.2,49.1 29.5,49.1 29.5,37.6 25.5,37.6 25.5,35.2 36.3,35.2 36.3,37.6 	"/>
	<path d="M38.2,42.2h-2.4c0-1.2,0.3-1.9,0.8-2.3c0.5-0.4,1.6-0.6,3.2-0.6c1.8,0,2.9,0.2,3.6,0.7c0.6,0.5,0.9,1.4,0.9,2.8v6.4H42
		l0.1-1.3l-0.1,0c-0.4,1-1.5,1.5-3.1,1.5c-2.4,0-3.5-1-3.5-3c0-2,1.2-3,3.6-3c1.6,0,2.6,0.4,2.9,1.1h0v-1.6c0-0.8-0.1-1.3-0.4-1.5
		c-0.3-0.2-0.8-0.4-1.6-0.4C38.8,40.8,38.2,41.3,38.2,42.2 M39.7,44.7c-1.3,0-2,0.5-2,1.4c0,0.6,0.1,1,0.4,1.2
		c0.3,0.2,0.8,0.3,1.7,0.3c1.4,0,2.1-0.5,2.1-1.4C42,45.2,41.2,44.7,39.7,44.7"/>
	<path d="M52.7,45.4H55v0.3l-0.1,1.5c-0.3,1.3-1.7,2-4.2,2c-1.8,0-3.1-0.3-3.7-1c-0.6-0.7-0.9-2-0.9-4c0-2,0.3-3.3,0.9-4
		c0.6-0.7,1.8-1,3.5-1c1.7,0,2.8,0.2,3.4,0.7c0.6,0.5,0.9,1.4,0.9,2.8h-2.3c0-1.1-0.7-1.7-2-1.7c-0.9,0-1.5,0.2-1.8,0.5
		c-0.2,0.4-0.4,1.2-0.4,2.7c0,1.4,0.1,2.2,0.4,2.6c0.3,0.4,0.9,0.5,1.9,0.5c0.8,0,1.3-0.1,1.5-0.4C52.6,46.8,52.7,46.2,52.7,45.4"/>
	<polygon points="59,35.2 59,43.2 59.6,43.2 62.3,39.4 65,39.4 61.6,43.9 65.7,49.1 62.8,49.1 59.6,44.8 59,44.8 59,49.1 56.7,49.1 
		56.7,35.2 	"/>
</g>
</svg>
